
<svg version="1.1" id="Capa_1" xmlns="http://www.w3.org/2000/svg" xmlns:xlink="http://www.w3.org/1999/xlink" x="0px" y="0px"
	 viewBox="0 0 512 512" style="enable-background:new 0 0 512 512;" xml:space="preserve">
<g>
	<g>
		<path d="M502.291,150.964l-134.402-50.667C365.42,44.575,319.32,0,263,0c-55.79,0-101.834,43.604-104.831,99.274
			c-0.829,15.169,0.233,27.654,7.785,44.771L20.296,89.002c-4.608-1.739-9.776-1.105-13.827,1.696C2.418,93.499,0,98.111,0,103.036
			v332c0,6.241,3.865,11.831,9.704,14.034l163.984,61.958c0.001,0,0.002,0.001,0.004,0.001l0.012,0.004
			c3.435,1.296,7.286,1.251,10.592,0L338,453.032l153.704,58.002c4.597,1.734,9.766,1.112,13.827-1.696
			C509.582,506.537,512,501.925,512,497V165C512,158.757,508.133,153.167,502.291,150.964z M164,475.307L30,424.664V124.729
			l134,50.643V475.307z M323,426.628l-129,48.679V192.543c13.498,21.041,31.598,48.421,56.368,87.099
			c2.758,4.306,7.519,6.911,12.632,6.911c5.113,0,9.874-2.604,12.632-6.911c19.765-30.862,35.505-54.84,47.368-73.044V426.628z
			 M337.928,109.619c-0.015,0.213-0.018,0.426-0.023,0.639c-0.984,23.893-11.6,35.494-74.904,133.559
			c-69.519-107.746-76.48-113.581-74.877-142.905c0-0.005,0-0.009,0.001-0.014C190.261,61.142,223.15,30,263,30
			c41.355,0,75,33.645,75,75C338,106.611,337.979,108.141,337.928,109.619z M482,475.307l-129-48.679V158.523
			c5.871-10.567,9.615-19.041,11.893-27.295L482,175.376V475.307z"/>
	</g>
</g>
<g>
	<g>
		<path d="M263,60c-24.813,0-45,20.187-45,45s20.187,45,45,45s45-20.187,45-45S287.813,60,263,60z M263,120c-8.271,0-15-6.729-15-15
			s6.729-15,15-15s15,6.729,15,15S271.271,120,263,120z"/>
	</g>
</g>
<g>
</g>
<g>
</g>
<g>
</g>
<g>
</g>
<g>
</g>
<g>
</g>
<g>
</g>
<g>
</g>
<g>
</g>
<g>
</g>
<g>
</g>
<g>
</g>
<g>
</g>
<g>
</g>
<g>
</g>
</svg>
