<svg width="19" height="19" viewBox="0 0 19 19" fill="none" xmlns="http://www.w3.org/2000/svg">
<path d="M17.9963 16.7537L14.75 13.5337C16.0101 11.9626 16.6204 9.96836 16.4552 7.96111C16.2901 5.95387 15.3622 4.08616 13.8624 2.74204C12.3625 1.39792 10.4046 0.679549 8.39135 0.734639C6.37807 0.789729 4.46242 1.61409 3.03829 3.03823C1.61416 4.46236 0.78979 6.37801 0.7347 8.39128C0.67961 10.4046 1.39798 12.3624 2.7421 13.8623C4.08622 15.3622 5.95393 16.2901 7.96118 16.4552C9.96842 16.6203 11.9626 16.0101 13.5338 14.75L16.7538 17.97C16.8351 18.052 16.9319 18.1171 17.0385 18.1615C17.1452 18.2059 17.2595 18.2288 17.375 18.2288C17.4905 18.2288 17.6049 18.2059 17.7115 18.1615C17.8182 18.1171 17.9149 18.052 17.9963 17.97C18.154 17.8068 18.2422 17.5888 18.2422 17.3619C18.2422 17.1349 18.154 16.9169 17.9963 16.7537V16.7537ZM8.62504 14.75C7.41363 14.75 6.22942 14.3908 5.22217 13.7177C4.21492 13.0447 3.42986 12.0881 2.96628 10.9689C2.50269 9.84972 2.38139 8.61818 2.61773 7.43005C2.85406 6.24192 3.43741 5.15054 4.29401 4.29395C5.15061 3.43735 6.24198 2.854 7.43011 2.61767C8.61824 2.38133 9.84978 2.50263 10.969 2.96621C12.0882 3.4298 13.0448 4.21486 13.7178 5.22211C14.3908 6.22936 14.75 7.41357 14.75 8.62498C14.75 10.2494 14.1047 11.8073 12.9561 12.956C11.8074 14.1047 10.2495 14.75 8.62504 14.75V14.75Z" fill="#C7D0E2"/>
</svg>
