<?xml version="1.0" encoding="utf-8"?>
<!-- Generator: Adobe Illustrator 22.1.0, SVG Export Plug-In . SVG Version: 6.00 Build 0)  -->
<svg version="1.1" id="Слой_1" xmlns="http://www.w3.org/2000/svg" xmlns:xlink="http://www.w3.org/1999/xlink" x="0px" y="0px"
	 viewBox="0 0 114 96" style="enable-background:new 0 0 114 96;" xml:space="preserve">
<style type="text/css">
	.st0{fill:#C3CC7E;}
</style>
<title>icon</title>
<g>
	<path class="st0" d="M55.6,95.2c-0.4,0-0.8-0.1-1.2-0.4c-9.8-6.3-19.1-13.6-27.7-21.5c-8.8-8.3-15-15.9-19.5-24
		C3.1,41.9,1.1,35.2,1,28.5c-0.3-6,1.6-12,5.2-16.8c5.2-6.6,13-10.4,21.4-10.4c2.8,0,5.6,0.4,8.3,1.3c8.3,2.5,14.7,8,19.5,16.6
		c0,0,0,0.1,0,0.1c0.2,0.6,0.4,1.2,0.4,1.8c0.1,1,0.2,2.1,0.2,3.2c0.2,3,0.5,6.1,0.6,9.1c0.1,1.9,0,3.8-0.2,5.6c-0.2,1.4-1.1,2-2,2
		c-0.7,0-1.4-0.4-1.9-1.1c-0.8-1-1.5-2.2-2-3.4c-1-2.4-2-4.8-3-7.2c-0.5-1.2-0.9-2.3-1.4-3.5c-1-2.5-2-5.1-3.1-7.6
		c-0.9-2-1.7-3-3.1-3.3c-0.3-0.1-0.5-0.1-0.8-0.1c-0.5,0-1,0.2-1.3,0.5c-0.4,0.4-0.5,0.9-0.5,1.7c0,0.8,0.2,1.6,0.4,2.3
		c1.4,4,2.8,8,4.2,12l1.5,4.2c0.9,2.5,1.8,5.1,2.6,7.7c0.2,0.5,0,1-0.1,1.4c0,0.1-0.1,0.2-0.1,0.3c-0.1,0.3-0.2,0.6-0.5,0.7
		c-0.1,0.1-0.3,0.1-0.5,0.1c-0.1,0-0.3,0-0.4-0.1c-0.1,0-0.2-0.1-0.3-0.1c-0.3-0.1-0.8-0.3-1.2-0.7c-1-1.1-2-2.3-2.9-3.6
		c-1.5-2.1-3-4.3-4.5-6.4c-1.7-2.5-3.5-4.9-5.2-7.4c-0.6-0.9-1.3-1.6-2.2-2.3c-0.4-0.2-0.8-0.3-1.2-0.3c-0.7,0-1.4,0.3-1.8,0.8
		c-0.4,0.4-0.8,0.7,0.2,2.3c0.6,1.1,1.2,2.1,1.8,3.2c3.7,6.3,7.3,12.6,11,19l0.1,0.2c0.5,0.8,1.4,2.4,0,3.8c-0.5,0.4-1,0.7-1.7,0.7
		c-0.9,0-1.7-0.5-2.3-0.9c-2.1-1.4-4.2-2.7-6.2-4c-2.2-1.5-4.4-2.9-6.7-4.3c-0.6-0.4-1.3-0.7-2-0.9c-0.1,0-0.2,0-0.4,0
		c-0.8,0-1.5,0.4-1.9,1c-0.2,0.5-0.1,0.9,0.8,1.7c0.9,0.8,1.8,1.6,2.9,2.4l0.3,0.2c0.9,0.7,1.9,1.4,2.8,2.1c1.6,1.2,3.3,2.5,4.9,3.9
		c1.6,1.2,3,2.5,4.7,4c1,0.9,2,1.9,2.9,3c1,1.4,2,2.8,2.8,4.2l0.3,0.5c1,1.6,2.1,3.2,3.1,4.8c0.4,0.7,0.9,1.3,1.3,2l0.1-1.3
		c0.3-2.4,0.5-4.8,0.8-7.2c0.2-1.5,0.2-3,0.1-4.5c-0.1-1.2-0.4-2.5-0.6-3.8c-0.1-0.8-0.3-1.5-0.4-2.3c-0.1-0.5-0.2-1-0.1-1.6
		c0-0.2,0.3-1.5,1.2-1.9c0.1,0,0.1,0,0.2,0c0.1,0,0.3,0,0.4,0c0.6,0,1.1,0.2,1.6,0.6c0.5,0.5,0.8,1,0.9,1.6l0.2,0.8
		c0.4,1.6,0.8,3.2,1.2,4.8c0,0.1,0.1,0.1,0.1,0.2c0-0.1,0.1-0.1,0.1-0.2c0.5-2.2,1-4.5,1.5-6.7c0.2-1,0.4-2,0.6-3c0.1-0.5,0.4-2,2-2
		c0.1,0,0.1,0,0.2,0c1.2,0.1,2.2,1.1,2.2,2.4c0,0.5,0,1.1-0.1,1.6c-0.3,1.9-0.5,3.5-0.7,5.1c0.9-2.1,1.8-4.3,2.8-6.5
		c0.2-0.5,0.9-2.2,2.4-2.2c0.3,0,0.5,0.1,0.8,0.2c1,0.4,1.9,1.6,1.4,3.7c0,0.2-0.1,0.4-0.2,0.6c-0.9,2.5-1.8,5-2.7,7.5
		c-0.1,0.2-0.1,0.4-0.2,0.5c0.3-0.3,0.6-0.7,0.8-1c1.5-1.9,3-3.7,4.4-5.6c0.5-0.6,1.2-1,1.9-1c0.5,0,1,0.2,1.4,0.5
		c0.4,0.3,1.5,1.2,0.6,3.1c-0.3,0.5-0.5,0.9-0.8,1.4c-0.6,0.9-1.2,1.8-1.8,2.7c-1.1,1.6-2.2,3.2-3.2,4.9c-0.6,0.9-0.8,2-0.6,3
		c1.1-0.5,2.1-1,3.2-1.4c0,0,0.1,0,0.1,0c0.9-0.2,1.9-0.4,2.8-0.4c0.4,0,0.7,0,1.1,0.1c0.7,0.1,1.1,0.6,1.5,1
		c0.1,0.1,0.2,0.2,0.3,0.3c0.2,0.2,0.3,0.5,0.3,0.7s-0.1,0.5-0.3,0.7c-0.1,0.1-0.1,0.2-0.2,0.2c-0.3,0.3-0.6,0.7-1.1,0.9
		c-2.2,0.9-4.1,2.1-5.8,3.8c-1.5,1.3-3.1,2.6-4.8,3.6c-1.6,1-2.7,1.8-3,3.6c-0.2,1.3-0.5,2.6-0.8,3.8c-0.2,0.9-0.4,1.8-0.6,2.7
		c0,0.3,0.1,0.5,0.2,0.7c0.5,1,1.1,1.9,1.7,2.9l0.6,1.1c0.3,0.4,0.1,1-0.3,1.3l-0.2,0.2C56.8,94.8,56.3,95.2,55.6,95.2
		C55.6,95.2,55.6,95.2,55.6,95.2z"/>
	<path d="M27.6,2.3c2.7,0,5.4,0.4,8,1.3c8.6,2.6,14.6,8.4,18.9,16.2c0.2,0.5,0.3,0.9,0.3,1.4c0.3,4.1,0.7,8.2,0.9,12.3
		c0.1,1.8,0,3.6-0.2,5.4c-0.1,0.8-0.5,1.1-1,1.1c-0.4,0-0.8-0.2-1.1-0.7c-0.8-1-1.4-2.1-1.9-3.2c-1.5-3.5-2.9-7.1-4.4-10.6
		c-1-2.5-2-5.1-3.1-7.6c-0.7-1.7-1.7-3.4-3.7-3.9c-0.4-0.1-0.7-0.1-1-0.1c-1.7,0-2.9,1.2-2.8,3.2c0,0.9,0.2,1.7,0.5,2.6
		c1.8,5.3,3.6,10.6,5.5,15.8c0.9,2.7,1.9,5.4,2.7,8.1c0.1,0.3-0.1,0.8-0.2,1.1c-0.3-0.2-0.8-0.2-1-0.5c-1-1.1-2-2.3-2.9-3.5
		c-3.3-4.6-6.5-9.2-9.7-13.8c-0.7-1-1.5-1.8-2.4-2.5c-0.5-0.3-1.2-0.5-1.8-0.5c-0.9,0-1.9,0.4-2.6,1.1c-0.9,0.9-0.9,1.9,0.1,3.5
		c0.6,1,1.2,2.1,1.8,3.2c3.7,6.3,7.3,12.6,11,19c0.5,0.8,1.2,1.8,0.3,2.7c-0.3,0.3-0.6,0.4-1,0.4c-0.6,0-1.3-0.4-1.8-0.8
		c-4.3-2.8-8.5-5.6-12.8-8.3c-0.7-0.5-1.5-0.8-2.3-1c-0.2,0-0.4-0.1-0.7-0.1c-1.1,0-2.2,0.6-2.8,1.5c-0.5,1.2,0.2,2.2,1,2.9
		c1,1,2.1,1.8,3.2,2.7c2.6,2,5.2,3.9,7.7,6c1.7,1.3,3.1,2.6,4.7,4c1,0.9,1.9,1.9,2.8,2.9c1.1,1.5,2.1,3.1,3.1,4.6
		c1.8,2.7,3.5,5.3,5.2,8c0.2,0.3,0.5,0.6,0.7,0.8c0.1-0.5,0.1-0.7,0.1-0.9c0.4-3.4,0.8-6.7,1.1-10.1c0.2-1.5,0.2-3.1,0.1-4.6
		c-0.2-2.1-0.7-4.1-1-6.2c-0.1-0.4-0.1-0.9-0.1-1.4c0.1-0.4,0.3-0.9,0.6-1c0.1,0,0.1,0,0.2,0c0.3,0,0.6,0.1,0.9,0.3
		c0.3,0.3,0.5,0.7,0.6,1.1c0.5,1.9,0.9,3.8,1.5,5.6c0.3,0.6,0.6,1.2,1.1,1.7c0.4-0.5,0.7-1.1,1-1.8c0.8-3.3,1.4-6.5,2.1-9.8
		c0.1-0.6,0.2-1.2,1-1.2c0,0,0.1,0,0.1,0c0.7,0,1.3,0.6,1.3,1.3c0,0.5,0,1-0.1,1.5c-0.4,2.6-0.7,5.1-1,7.7c0,0.5,0,1,0.1,1.5l0.4,0
		c0.2-0.4,0.5-0.7,0.7-1.1c1.3-3,2.6-6,3.9-9c0.4-1,0.9-1.6,1.5-1.6c0.1,0,0.3,0,0.4,0.1c0.8,0.3,1.1,1.2,0.8,2.5
		c0,0.1-0.1,0.3-0.1,0.4c-0.9,2.5-1.8,5-2.7,7.5c-0.2,0.4-0.3,0.8-0.3,1.2c0,0.4,0.1,0.9,0.2,1.3c0.4-0.1,0.8-0.3,1.2-0.5
		c0.5-0.5,0.9-1,1.4-1.5c1.5-1.8,3-3.7,4.4-5.5c0,0,0,0,0-0.1c0.3-0.4,0.7-0.5,1.1-0.5c0.3,0,0.6,0.1,0.8,0.3
		c0.8,0.5,0.6,1.1,0.3,1.8c-0.2,0.4-0.5,0.9-0.8,1.3c-1.7,2.5-3.4,5-5,7.6c-0.9,1.5-1,3.4-0.3,5c1.3-0.8,2.7-1.4,4.2-1.9
		c0.8-0.2,1.7-0.3,2.6-0.3c0.3,0,0.7,0,1,0c0.4,0.1,0.8,0.7,1.2,1.1c-0.3,0.3-0.6,0.7-1,0.9c-2.3,0.9-4.4,2.3-6.2,4
		c-1.4,1.3-3,2.4-4.6,3.5c-1.6,1-3,2-3.4,4.3c-0.4,2.2-1,4.4-1.4,6.6c0,0.5,0.1,1,0.3,1.4c0.7,1.3,1.5,2.6,2.3,4
		c-0.5,0.3-0.8,0.7-1.2,0.7c-0.2,0-0.4-0.1-0.7-0.2c-9.8-6.3-19-13.5-27.6-21.4c-7.5-7-14.3-14.7-19.3-23.7
		c-3.5-6.4-5.9-13-6.1-20.3c-0.3-5.8,1.5-11.5,5-16.2C12.1,5.8,19.7,2.3,27.6,2.3 M27.6,0.3c-8.7,0-16.8,3.9-22.1,10.8
		c-3.8,5-5.7,11.2-5.4,17.5c0.1,6.9,2.1,13.7,6.3,21.3C10.8,58,17.1,65.7,26,74c8.6,8,18,15.2,27.9,21.6c0.6,0.4,1.2,0.6,1.8,0.6
		c1,0,1.7-0.5,2.2-0.9c0.1-0.1,0.1-0.1,0.2-0.2c0.8-0.6,1.1-1.7,0.6-2.6c-0.2-0.4-0.4-0.7-0.7-1.1c-0.6-1-1.1-1.9-1.6-2.8
		c0,0,0,0,0-0.1c0,0,0-0.1,0-0.1c0.2-0.9,0.4-1.7,0.6-2.6c0.3-1.3,0.6-2.6,0.8-3.9c0.2-1.3,0.9-1.9,2.5-2.9c1.7-1.1,3.4-2.3,4.9-3.7
		c0,0,0,0,0.1-0.1c1.6-1.5,3.4-2.7,5.5-3.6c0.7-0.3,1.2-0.8,1.5-1.1c0.1-0.1,0.1-0.1,0.2-0.2c0.4-0.4,0.6-0.9,0.6-1.4
		c0-0.5-0.2-1.1-0.6-1.5c-0.1-0.1-0.1-0.2-0.2-0.3c-0.4-0.5-1-1.2-2-1.4c0,0-0.1,0-0.1,0c-0.4,0-0.8-0.1-1.2-0.1c-1,0-2,0.1-3,0.4
		c-0.1,0-0.1,0-0.2,0.1c-0.6,0.2-1.2,0.5-1.8,0.8c0.1-0.3,0.2-0.6,0.4-0.9c1-1.6,2.1-3.3,3.2-4.8c0.6-0.9,1.2-1.8,1.8-2.7
		c0.3-0.5,0.6-1,0.9-1.5c1.1-2.1,0.2-3.6-0.9-4.4c-0.6-0.4-1.2-0.6-1.9-0.6c-1,0-2,0.5-2.7,1.3c0,0,0,0-0.1,0.1
		c-0.5,0.6-1,1.2-1.5,1.9c0.3-0.8,0.6-1.6,0.9-2.4c0.1-0.2,0.2-0.4,0.2-0.7c0.7-2.7-0.6-4.3-2-4.8c-0.4-0.1-0.8-0.2-1.1-0.2
		c-1.4,0-2.6,0.9-3.4,2.8c0,0.1,0,0.1-0.1,0.2c0,0,0,0,0-0.1c0-1.7-1.3-3.2-3.1-3.3c-0.1,0-0.2,0-0.3,0c-0.9,0-2.5,0.4-2.9,2.8
		c-0.2,1-0.4,2-0.6,3c-0.2,1-0.4,2-0.6,3c-0.1-0.4-0.2-0.7-0.3-1.1l-0.2-0.8c-0.2-0.8-0.6-1.5-1.1-2c0,0-0.1-0.1-0.1-0.1
		c-0.6-0.5-1.4-0.8-2.2-0.8c-0.2,0-0.4,0-0.5,0c-0.1,0-0.2,0-0.3,0.1c-1.2,0.4-1.7,1.6-1.9,2.6c0,0.1,0,0.1,0,0.2
		c0,0.6,0,1.3,0.2,1.9c0.1,0.8,0.3,1.5,0.4,2.3c0.2,1.3,0.4,2.5,0.6,3.7c0.1,1.4,0.1,2.8-0.1,4.2c-0.2,1.9-0.4,3.9-0.6,5.7
		c-1-1.5-1.9-3-2.9-4.4l-0.3-0.5c-0.9-1.4-1.8-2.9-2.9-4.2c-0.9-1.2-2-2.2-3-3.2c-1.6-1.5-3.1-2.8-4.8-4.1c-1.6-1.3-3.3-2.6-4.9-3.9
		c-0.9-0.7-1.9-1.4-2.8-2.1l-0.3-0.2c-1-0.8-2-1.5-2.8-2.3c-0.3-0.3-0.5-0.5-0.5-0.6c0.3-0.3,0.6-0.4,1-0.4c0.1,0,0.1,0,0.2,0
		c0.6,0.2,1.1,0.4,1.6,0.7c2.2,1.4,4.5,2.9,6.7,4.3c2,1.3,4.1,2.7,6.1,4l0.1,0c0.7,0.5,1.6,1.1,2.8,1.1c0.9,0,1.7-0.3,2.3-0.9
		c2.1-1.9,0.7-4.2,0.2-5l-0.1-0.2c-3.6-6.3-7.3-12.7-11-19c-0.6-1.1-1.2-2.1-1.8-3.2c-0.4-0.6-0.4-0.9-0.5-1c0,0,0,0,0.1-0.1
		c0,0,0.1-0.1,0.1-0.1c0.3-0.3,0.7-0.5,1.1-0.5c0.2,0,0.5,0.1,0.7,0.2c0.7,0.6,1.4,1.2,1.9,2c1.8,2.5,3.5,5,5.2,7.4
		c1.5,2.2,3,4.3,4.5,6.4c0.9,1.3,2,2.5,3,3.7c0.5,0.6,1.2,0.8,1.6,0.9c0.1,0,0.1,0,0.2,0.1c0.2,0.1,0.5,0.1,0.8,0.1
		c0.3,0,0.7-0.1,1-0.2c0.5-0.3,0.9-0.8,1-1.4c0-0.1,0-0.1,0-0.2c0.1-0.4,0.3-1.2,0-2c-0.8-2.5-1.7-5.1-2.6-7.6l-0.2-0.5L42.9,31
		c-1.4-3.9-2.8-8-4.1-12c-0.2-0.6-0.3-1.3-0.4-2c0-0.4,0.1-0.8,0.2-0.9c0.1-0.1,0.4-0.2,0.6-0.2c0.2,0,0.3,0,0.5,0.1
		c1,0.3,1.7,1,2.4,2.7c1.1,2.5,2.1,5.1,3.1,7.6c0.5,1.2,1,2.3,1.4,3.5c1,2.4,2,4.8,3,7.2c0.6,1.3,1.3,2.5,2.1,3.6
		c0.7,0.9,1.7,1.5,2.7,1.5c1.5,0,2.7-1.2,3-2.9c0.3-1.9,0.3-3.9,0.2-5.8c-0.2-3-0.4-6.1-0.6-9.1c-0.1-1.1-0.2-2.1-0.2-3.2
		c0-0.7-0.2-1.4-0.4-2.1c0-0.1-0.1-0.1-0.1-0.2C51.3,9.8,44.7,4.2,36.2,1.6C33.4,0.7,30.5,0.3,27.6,0.3L27.6,0.3z"/>
</g>
<g>
	<path class="st0" d="M79.4,79.1c-0.1,0-0.1,0-0.2,0c-0.3-0.1-0.6-0.3-0.7-0.5c-0.2-0.4-0.4-0.7-0.5-1c-0.4-0.8-0.9-1.6-1.2-2.5
		c-0.4-0.9-0.6-1.9-0.5-2.9c0.3-2.4,0.9-4.7,1.6-7c1.6-4.2,2-8.5,2.4-13.3c0.1-3.8,0.9-7.6,2.2-11.3c0.7-1.9,1.6-3.8,2.8-6
		c0.3-0.6,0.3-1.1,0.2-1.3C85.4,33.1,85,33,84.4,33l-0.1,0c-0.7,0-1.4,0.2-2,0.5c-2.4,1.3-4.4,3.4-5.5,6c-0.8,1.8-1.5,3.7-2.2,5.5
		c-0.3,0.9-0.7,1.8-1,2.7c-0.1,0.3-0.2,0.6-0.4,0.9c-0.1,0.2-0.2,0.4-0.3,0.6c-0.1,0.3-0.3,0.5-0.6,0.6c-0.1,0-0.2,0-0.3,0
		c-0.2,0-0.4-0.1-0.6-0.2c-3.3-2.2-6.5-4.9-7.3-9.3c-0.8-4.5-1.5-9-2.2-13.4c-0.4-2.7-0.8-5.5-1.3-8.2c-0.3-1.2,0.1-2.6,1.1-3.5
		c1.6-1.8,3.4-3.7,5.3-5.4C72.9,5,79.3,2.5,85.9,2.5c3,0,6.1,0.5,9.3,1.5c12.6,4.1,19.8,16.4,17.4,30c-1.4,7.5-4.5,14.7-9,20.8
		C98.5,62,92.4,68.5,85.7,74.2c-1.3,1.1-2.6,2.2-3.9,3.3l-1.7,1.4C79.9,79,79.7,79.1,79.4,79.1z"/>
	<path d="M85.9,3.5c2.9,0,5.9,0.5,9,1.5c12.3,4,19,15.8,16.7,28.9c-1.4,7.4-4.4,14.3-8.8,20.4c-5.1,7.1-11,13.5-17.8,19.1
		c-1.8,1.6-3.7,3.1-5.6,4.7c-0.6-1.2-1.3-2.3-1.7-3.4c-0.3-0.8-0.5-1.6-0.4-2.4c0.3-2.3,0.9-4.6,1.6-6.8c1.6-4.4,2-9,2.4-13.5
		c0.1-3.8,0.9-7.5,2.1-11c0.8-2,1.7-4,2.7-5.9c0.9-1.8,0.3-3.1-1.7-3.2c-0.1,0-0.1,0-0.2,0c-0.9,0-1.7,0.2-2.4,0.6
		c-2.6,1.4-4.7,3.7-5.9,6.4c-1.2,2.7-2.2,5.5-3.3,8.3c-0.2,0.5-0.4,0.9-0.6,1.5c-3.3-2.2-6.2-4.7-6.9-8.7
		c-1.3-7.2-2.3-14.4-3.5-21.6c-0.2-0.9,0.1-1.9,0.8-2.6c1.6-1.9,3.4-3.7,5.2-5.4C73.3,6,79.4,3.5,85.9,3.5 M85.9,1.5
		C79,1.5,72.5,4.1,66.4,9c0,0-0.1,0-0.1,0.1c-1.9,1.7-3.7,3.6-5.4,5.5c-1.1,1.1-1.6,2.8-1.3,4.3c0.4,2.7,0.9,5.5,1.3,8.1
		c0.7,4.4,1.4,9,2.2,13.5c0.9,4.8,4.4,7.7,7.7,10c0.3,0.2,0.7,0.3,1.1,0.3c0.2,0,0.4,0,0.6-0.1c0.6-0.2,1-0.6,1.3-1.2
		c0.1-0.2,0.2-0.4,0.3-0.6c0.1-0.3,0.3-0.6,0.4-0.9c0.3-0.9,0.7-1.8,1-2.7c0.7-1.8,1.4-3.7,2.2-5.5c1-2.3,2.8-4.3,5-5.5
		c0.4-0.2,1-0.4,1.5-0.4l0.1,0c0,0,0.1,0,0.1,0c0,0.1-0.1,0.2-0.1,0.3c-1.2,2.2-2.1,4.2-2.8,6c0,0,0,0,0,0.1
		c-1.3,3.7-2.1,7.6-2.2,11.6c-0.4,4.7-0.8,8.9-2.3,13c0,0,0,0,0,0.1c-0.8,2.3-1.3,4.7-1.7,7.1c0,0,0,0.1,0,0.1
		c-0.1,1.1,0.1,2.3,0.5,3.4c0.3,0.9,0.8,1.7,1.2,2.5c0.2,0.3,0.4,0.7,0.5,1c0.3,0.5,0.8,0.9,1.4,1.1c0.1,0,0.3,0,0.4,0
		c0.5,0,0.9-0.2,1.3-0.5c0.6-0.5,1.1-0.9,1.6-1.4c1.4-1.1,2.7-2.2,4-3.3c6.8-5.7,12.9-12.3,18.1-19.5c4.5-6.2,7.7-13.6,9.1-21.2
		c2.4-14.1-5-26.9-18.1-31.2C92.2,2.1,89,1.5,85.9,1.5L85.9,1.5z"/>
</g>
</svg>
