<?xml version="1.0" encoding="utf-8"?>
<!-- Generator: Adobe Illustrator 22.1.0, SVG Export Plug-In . SVG Version: 6.00 Build 0)  -->
<svg version="1.1" id="Слой_1" xmlns="http://www.w3.org/2000/svg" xmlns:xlink="http://www.w3.org/1999/xlink" x="0px" y="0px"
	 viewBox="0 0 101.8 132.8" style="enable-background:new 0 0 101.8 132.8;" xml:space="preserve">
<style type="text/css">
	.st0{fill:#FFFFFF;}
	.st1{fill:#BAE3FA;}
	.st2{fill:#A2D9F1;}
</style>
<title>icon</title>
<path d="M51.1,12.9c-0.5,0-1-0.2-1.4-0.6c-0.8-0.8-0.8-2,0-2.8l0,0l5-5c0.4-0.4,0.9-0.6,1.4-0.6h33.4c1.1,0,2,0.9,2,2s-0.9,2-2,2
	l0,0H57l-4.5,4.5C52.1,12.7,51.6,12.9,51.1,12.9z"/>
<path d="M84.6,33.1H70.2c-3.3,0-6-2.7-6-6V16.2c0-3.3,2.7-6,6-6h14.3c3.3,0,6,2.7,6,6v10.9C90.5,30.4,87.9,33.1,84.6,33.1z
	 M70.2,14.3c-1.1,0-2,0.9-2,2v10.9c0,1.1,0.9,2,2,2h14.3c1.1,0,2-0.9,2-2v-11c0-1.1-0.9-2-2-2L70.2,14.3z"/>
<path class="st0" d="M76.4,2h2c2.2,0,4,1.8,4,4v2.3c0,2.2-1.8,4-4,4h-2c-2.2,0-4-1.8-4-4V6C72.4,3.8,74.2,2,76.4,2z"/>
<path d="M78.4,14.3h-2c-3.3,0-6-2.7-6-6V6c0-3.3,2.7-6,6-6h2c3.3,0,6,2.7,6,6v2.3C84.4,11.6,81.7,14.3,78.4,14.3z M78.4,4h-2
	c-1.1,0-2,0.9-2,2v2.3c0,1.1,0.9,2,2,2h2c1.1,0,2-0.9,2-2V6C80.4,4.9,79.5,4,78.4,4z"/>
<path d="M87.8,121.1H67c-7.7,0-14-6.3-14-14V52.5c0-7.7,6.3-14,14-14h20.8c7.7,0,14,6.3,14,14v54.7
	C101.8,114.9,95.5,121.1,87.8,121.1z M67,42.5c-5.5,0-10,4.5-10,10v54.7c0,5.5,4.5,10,10,10h20.8c5.5,0,10-4.5,10-10V52.5
	c0-5.5-4.5-10-10-10H67z"/>
<path class="st0" d="M61.4,27.9h31.9c2.2,0,4,1.8,4,4v4.6c0,2.2-1.8,4-4,4H61.4c-2.2,0-4-1.8-4-4v-4.6
	C57.5,29.7,59.2,27.9,61.4,27.9z"/>
<path d="M93.4,42.5h-32c-3.3,0-6-2.7-6-6v-4.6c0-3.3,2.7-6,6-6h31.9c3.3,0,6,2.7,6,6v4.6C99.3,39.8,96.7,42.5,93.4,42.5z M61.4,29.9
	c-1.1,0-2,0.9-2,2v4.6c0,1.1,0.9,2,2,2h31.9c1.1,0,2-0.9,2-2v-4.6c0-1.1-0.9-2-2-2H61.4z"/>
<g>
	<path class="st1" d="M77.4,94.1c-2.3,0-4.2-1.8-4.3-4l0-6.5h-6.4c-2.4,0-4.3-1.9-4.3-4.3s1.9-4.3,4.3-4.3h6.4v-6.4
		c0.1-2.3,1.8-4,4-4.1c0.1,0,0.2,0,0.2,0c2.3,0,4.2,1.8,4.3,4l0,6.5h6.4c2.4,0,4.3,1.9,4.3,4.3s-1.9,4.3-4.3,4.3h-6.4V90
		c-0.1,2.3-1.8,4-4,4.1C77.6,94.1,77.5,94.1,77.4,94.1z"/>
	<path d="M77.4,65.5c1.7,0,3.2,1.4,3.3,3.1V76h7.4c1.8,0,3.3,1.5,3.3,3.3c0,1.8-1.5,3.3-3.3,3.3h-7.4V90c-0.1,1.7-1.4,3-3.1,3.1
		c-0.1,0-0.1,0-0.2,0c-1.7,0-3.2-1.4-3.3-3.1v-7.4h-7.4c-1.8,0-3.3-1.5-3.3-3.3c0-1.8,1.5-3.3,3.3-3.3h7.4v-7.4
		c0.1-1.7,1.4-3,3.1-3.1C77.3,65.5,77.3,65.5,77.4,65.5 M77.4,63.5c-0.1,0-0.2,0-0.3,0c-2.7,0.2-4.8,2.3-5,5c0,0,0,0.1,0,0.1V74
		h-5.4c-2.9,0-5.3,2.4-5.3,5.3c0,2.9,2.4,5.3,5.3,5.3h5.4V90c0,0,0,0.1,0,0.1c0.2,2.8,2.5,5,5.3,5c0.1,0,0.2,0,0.3,0
		c2.7-0.2,4.8-2.3,5-5c0,0,0-0.1,0-0.1v-5.4h5.4c2.9,0,5.3-2.4,5.3-5.3c0-2.9-2.4-5.3-5.3-5.3h-5.4v-5.4c0,0,0-0.1,0-0.1
		C82.5,65.7,80.2,63.5,77.4,63.5L77.4,63.5z"/>
</g>
<g>
	<path class="st1" d="M16.3,110.5v0.5c-8.7,0-15.8-7.1-15.8-15.9c0-8.7,7.1-15.8,15.9-15.8s15.9,7.1,15.8,15.9c0,2-0.4,4-1.1,5.9
		c-2.4,6-8.2,9.9-14.7,9.9L16.3,110.5L16.3,110.5z M16.3,83.3c-6.5,0-11.8,5.3-11.8,11.8c0,3.2,1.2,6.1,3.5,8.4s5.2,3.5,8.4,3.5
		c6.5,0,11.9-5.3,11.9-11.8c0-4.9-2.9-9.2-7.4-11C19.3,83.6,17.9,83.3,16.3,83.3v-0.5V83.3z"/>
	<path d="M16.3,79.8C16.4,79.8,16.4,79.8,16.3,79.8c8.5,0,15.4,6.9,15.4,15.4c0,2-0.4,3.9-1.1,5.7c-2.3,5.8-8,9.6-14.3,9.6l0,0
		C7.9,110.5,1,103.6,1,95.1S7.9,79.8,16.3,79.8 M16.3,107.5c6.8,0,12.3-5.5,12.3-12.3c0-5.1-3.1-9.6-7.7-11.5
		c-1.4-0.6-3-0.9-4.6-0.9l0,0l0,0C9.5,82.8,4,88.3,4,95.1C3.9,101.9,9.5,107.5,16.3,107.5L16.3,107.5 M16.3,78.8
		C7.3,78.8,0,86.1,0,95.1c0,4.4,1.7,8.5,4.8,11.6s7.2,4.8,11.6,4.8c6.7,0,12.7-4,15.2-10.3c0.8-1.9,1.2-4,1.2-6.1
		C32.7,86.1,25.4,78.8,16.3,78.8C16.4,78.8,16.3,78.8,16.3,78.8L16.3,78.8z M16.3,107.5v-1C10,106.5,5,101.4,5,95.1
		c0-6.2,5.1-11.3,11.3-11.3c1.5,0,2.9,0.3,4.2,0.8c4.3,1.7,7.1,5.9,7.1,10.6c0,6.2-5.1,11.3-11.3,11.3V107.5L16.3,107.5z"/>
</g>
<g>
	<path class="st1" d="M68.5,131.9c-2,0-4-0.4-5.9-1.1c-3.9-1.6-7-4.6-8.7-8.5s-1.7-8.2-0.1-12.1c2.4-6.1,8.2-10,14.7-10
		c2,0,4,0.4,5.9,1.1c8.1,3.2,12.1,12.5,8.8,20.6C80.8,128,75,131.9,68.5,131.9L68.5,131.9z M68.5,104.2c-6.5,0-11.8,5.4-11.8,11.9
		s5.4,11.8,11.8,11.8c4.9,0,9.2-2.9,11-7.4c1.2-2.9,1.1-6.2-0.1-9.1s-3.5-5.2-6.5-6.3C71.5,104.5,70.1,104.2,68.5,104.2v-0.5V104.2z
		"/>
	<path d="M68.5,100.7c1.9,0,3.8,0.4,5.7,1.1c7.9,3.2,11.7,12.1,8.5,20c-2.3,5.8-8,9.6-14.2,9.6l0,0l0,0c-1.9,0-3.9-0.4-5.7-1.1
		c-7.9-3.2-11.7-12.1-8.5-20C56.6,104.3,62.4,100.7,68.5,100.7 M68.5,103.7L68.5,103.7c-6.8,0-12.3,5.6-12.3,12.4
		s5.6,12.3,12.3,12.3h0.1c5,0,9.5-3.1,11.4-7.7c2.5-6.3-0.5-13.5-6.9-16.1C71.7,104,70.1,103.7,68.5,103.7L68.5,103.7 M68.5,99.7
		c-6.7,0-12.7,4-15.2,10.3c-1.6,4.1-1.6,8.5,0.1,12.5c1.7,4,4.9,7.1,9,8.7c1.9,0.8,4,1.2,6,1.2c6.8,0,12.7-4,15.2-10.3
		c1.6-4.1,1.6-8.5-0.1-12.5s-4.9-7.1-9-8.7C72.6,100.1,70.6,99.7,68.5,99.7L68.5,99.7z M68.5,127.4c-6.2,0-11.3-5.1-11.3-11.3
		c0-3,1.1-5.9,3.3-8c2.1-2.2,5-3.4,8-3.4v-1v1v-1v1c1.5,0,2.9,0.3,4.2,0.8c2.8,1.1,5,3.3,6.2,6.1s1.2,5.9,0.1,8.7
		C77.3,124.6,73.2,127.4,68.5,127.4L68.5,127.4L68.5,127.4z"/>
</g>
<g>
	<path class="st1" d="M58.2,132.3c-0.8,0-1.6-0.2-2.4-0.5l-41.1-16.5c-3.3-1.3-4.9-5.1-3.6-8.4l9.6-24c1-2.5,3.3-4,6-4
		c0.8,0,1.6,0.2,2.4,0.5l41.1,16.5c3.3,1.3,4.9,5.1,3.6,8.4l-9.6,24C63.2,130.7,60.8,132.3,58.2,132.3z"/>
	<path d="M26.7,79.4c0.7,0,1.5,0.1,2.2,0.4L70,96.4c3,1.2,4.5,4.7,3.3,7.7l-9.6,24c-0.9,2.3-3.2,3.7-5.5,3.7c-0.7,0-1.5-0.1-2.2-0.4
		l-41.1-16.5c-3-1.2-4.5-4.7-3.3-7.7l9.6-24C22.1,80.8,24.3,79.4,26.7,79.4 M26.7,78.4L26.7,78.4c-2.9,0-5.4,1.7-6.4,4.4l-9.6,24
		c-0.7,1.7-0.7,3.6,0.1,5.3s2.1,3,3.8,3.7l41.1,16.5c0.8,0.3,1.7,0.5,2.6,0.5c2.9,0,5.4-1.7,6.4-4.4l9.6-24c0.7-1.7,0.7-3.6-0.1-5.3
		s-2.1-3-3.8-3.7L29.3,78.9C28.4,78.6,27.6,78.4,26.7,78.4L26.7,78.4z"/>
</g>
<path class="st2" d="M22.8,96l40.4,16.2c0.8,0.3,1.2,1.2,0.9,2l0,0c-0.3,0.8-1.2,1.2-2,0.9L21.7,98.8c-0.8-0.3-1.2-1.2-0.9-2l0,0
	C21.1,96.1,22,95.7,22.8,96z"/>
<path class="st2" d="M21,101.5l40.5,16.1c0.8,0.3,1.2,1.2,0.9,2l0,0c-0.3,0.8-1.2,1.2-2,0.9l-40.5-16.1c-0.8-0.3-1.2-1.2-0.9-2l0,0
	C19.3,101.6,20.2,101.2,21,101.5z"/>
<path class="st2" d="M18.5,106.7l40.4,16.2c0.8,0.3,1.2,1.2,0.9,2l0,0c-0.3,0.8-1.2,1.2-2,0.9l-40.4-16.2c-0.8-0.3-1.2-1.2-0.9-2
	l0,0C16.8,106.8,17.7,106.4,18.5,106.7z"/>
</svg>
